<svg xmlns="http://www.w3.org/2000/svg" viewBox="0 0 22 22" shape-rendering="crispEdges"><rect x="10" y="0" width="2" height="2" fill="#7d1620"/><rect x="8" y="2" width="2" height="2" fill="#7d1620"/><rect x="12" y="2" width="2" height="2" fill="#7d1620"/><rect x="6" y="4" width="2" height="2" fill="#7d1620"/><rect x="14" y="4" width="2" height="2" fill="#7d1620"/><rect x="4" y="6" width="2" height="2" fill="#7d1620"/><rect x="10" y="6" width="2" height="2" fill="#7d1620"/><rect x="16" y="6" width="2" height="2" fill="#7d1620"/><rect x="2" y="8" width="2" height="2" fill="#7d1620"/><rect x="8" y="8" width="2" height="2" fill="#7d1620"/><rect x="12" y="8" width="2" height="2" fill="#7d1620"/><rect x="18" y="8" width="2" height="2" fill="#7d1620"/><rect x="0" y="10" width="2" height="2" fill="#7d1620"/><rect x="6" y="10" width="2" height="2" fill="#7d1620"/><rect x="10" y="10" width="2" height="2" fill="#c8962e"/><rect x="14" y="10" width="2" height="2" fill="#7d1620"/><rect x="20" y="10" width="2" height="2" fill="#7d1620"/><rect x="2" y="12" width="2" height="2" fill="#7d1620"/><rect x="8" y="12" width="2" height="2" fill="#7d1620"/><rect x="12" y="12" width="2" height="2" fill="#7d1620"/><rect x="18" y="12" width="2" height="2" fill="#7d1620"/><rect x="4" y="14" width="2" height="2" fill="#7d1620"/><rect x="10" y="14" width="2" height="2" fill="#7d1620"/><rect x="16" y="14" width="2" height="2" fill="#7d1620"/><rect x="6" y="16" width="2" height="2" fill="#7d1620"/><rect x="14" y="16" width="2" height="2" fill="#7d1620"/><rect x="8" y="18" width="2" height="2" fill="#7d1620"/><rect x="12" y="18" width="2" height="2" fill="#7d1620"/><rect x="10" y="20" width="2" height="2" fill="#7d1620"/></svg>